<svg data-v-423bf9ae="" xmlns="http://www.w3.org/2000/svg" viewBox="0 0 386.05969047291495 163" class="iconAbove"><!----><!----><!----><g data-v-423bf9ae="" id="634e8c66-e3da-4337-beb4-ef0e3a934e12" fill="white" transform="matrix(4.477611749096269,0,0,4.477611749096269,-2.552245041381042,89.79104393456394)"><path d="M4.33 13.66L4.33 13.66Q3.22 13.66 2.19 13.32L2.19 13.32L2.19 13.32Q1.16 12.98 0.57 12.43L0.57 12.43L1.09 11.34L1.09 11.34Q1.65 11.84 2.53 12.16L2.53 12.16L2.53 12.16Q3.40 12.47 4.33 12.47L4.33 12.47L4.33 12.47Q5.54 12.47 6.15 12.06L6.15 12.06L6.15 12.06Q6.75 11.65 6.75 10.96L6.75 10.96L6.75 10.96Q6.75 10.46 6.42 10.14L6.42 10.14L6.42 10.14Q6.09 9.83 5.61 9.66L5.61 9.66L5.61 9.66Q5.12 9.49 4.24 9.28L4.24 9.28L4.24 9.28Q3.14 9.02 2.46 8.75L2.46 8.75L2.46 8.75Q1.78 8.48 1.29 7.93L1.29 7.93L1.29 7.93Q0.81 7.38 0.81 6.44L0.81 6.44L0.81 6.44Q0.81 5.66 1.23 5.03L1.23 5.03L1.23 5.03Q1.64 4.40 2.48 4.02L2.48 4.02L2.48 4.02Q3.32 3.64 4.56 3.64L4.56 3.64L4.56 3.64Q5.43 3.64 6.27 3.86L6.27 3.86L6.27 3.86Q7.11 4.09 7.71 4.51L7.71 4.51L7.25 5.63L7.25 5.63Q6.64 5.24 5.94 5.03L5.94 5.03L5.94 5.03Q5.24 4.83 4.56 4.83L4.56 4.83L4.56 4.83Q3.37 4.83 2.78 5.26L2.78 5.26L2.78 5.26Q2.18 5.70 2.18 6.38L2.18 6.38L2.18 6.38Q2.18 6.89 2.52 7.20L2.52 7.20L2.52 7.20Q2.86 7.52 3.35 7.69L3.35 7.69L3.35 7.69Q3.85 7.87 4.70 8.06L4.70 8.06L4.70 8.06Q5.81 8.33 6.48 8.60L6.48 8.60L6.48 8.60Q7.15 8.86 7.64 9.41L7.64 9.41L7.64 9.41Q8.12 9.95 8.12 10.88L8.12 10.88L8.12 10.88Q8.12 11.65 7.70 12.29L7.70 12.29L7.70 12.29Q7.28 12.92 6.43 13.29L6.43 13.29L6.43 13.29Q5.57 13.66 4.33 13.66L4.33 13.66ZM9.97 13.55L9.97 6.13L11.31 6.13L11.31 13.55L9.97 13.55ZM10.64 4.70L10.64 4.70Q10.25 4.70 9.99 4.45L9.99 4.45L9.99 4.45Q9.73 4.20 9.73 3.84L9.73 3.84L9.73 3.84Q9.73 3.47 9.99 3.21L9.99 3.21L9.99 3.21Q10.25 2.95 10.64 2.95L10.64 2.95L10.64 2.95Q11.03 2.95 11.29 3.20L11.29 3.20L11.29 3.20Q11.55 3.44 11.55 3.81L11.55 3.81L11.55 3.81Q11.55 4.19 11.29 4.45L11.29 4.45L11.29 4.45Q11.03 4.70 10.64 4.70L10.64 4.70ZM17.84 6.06L17.84 6.06Q19.25 6.06 20.08 6.88L20.08 6.88L20.08 6.88Q20.92 7.70 20.92 9.28L20.92 9.28L20.92 13.55L19.57 13.55L19.57 9.44L19.57 9.44Q19.57 8.36 19.05 7.81L19.05 7.81L19.05 7.81Q18.54 7.27 17.57 7.27L17.57 7.27L17.57 7.27Q16.48 7.27 15.85 7.90L15.85 7.90L15.85 7.90Q15.22 8.54 15.22 9.73L15.22 9.73L15.22 13.55L13.87 13.55L13.87 6.13L15.16 6.13L15.16 7.25L15.16 7.25Q15.57 6.68 16.26 6.37L16.26 6.37L16.26 6.37Q16.95 6.06 17.84 6.06L17.84 6.06ZM29.23 6.13L30.51 6.13L30.51 12.54L30.51 12.54Q30.51 14.49 29.54 15.42L29.54 15.42L29.54 15.42Q28.57 16.35 26.66 16.35L26.66 16.35L26.66 16.35Q25.61 16.35 24.65 16.06L24.65 16.06L24.65 16.06Q23.70 15.78 23.11 15.25L23.11 15.25L23.76 14.21L23.76 14.21Q24.28 14.66 25.04 14.92L25.04 14.92L25.04 14.92Q25.80 15.18 26.61 15.18L26.61 15.18L26.61 15.18Q27.92 15.18 28.54 14.56L28.54 14.56L28.54 14.56Q29.16 13.94 29.16 12.68L29.16 12.68L29.16 12.10L29.16 12.10Q28.69 12.67 27.99 12.96L27.99 12.96L27.99 12.96Q27.30 13.24 26.49 13.24L26.49 13.24L26.49 13.24Q25.42 13.24 24.56 12.79L24.56 12.79L24.56 12.79Q23.70 12.33 23.21 11.52L23.21 11.52L23.21 11.52Q22.72 10.70 22.72 9.65L22.72 9.65L22.72 9.65Q22.72 8.60 23.21 7.78L23.21 7.78L23.21 7.78Q23.70 6.96 24.56 6.51L24.56 6.51L24.56 6.51Q25.42 6.06 26.49 6.06L26.49 6.06L26.49 6.06Q27.33 6.06 28.05 6.37L28.05 6.37L28.05 6.37Q28.77 6.68 29.23 7.28L29.23 7.28L29.23 6.13ZM26.64 12.07L26.64 12.07Q27.37 12.07 27.95 11.76L27.95 11.76L27.95 11.76Q28.53 11.45 28.86 10.90L28.86 10.90L28.86 10.90Q29.19 10.35 29.19 9.65L29.19 9.65L29.19 9.65Q29.19 8.57 28.48 7.90L28.48 7.90L28.48 7.90Q27.76 7.24 26.64 7.24L26.64 7.24L26.64 7.24Q25.51 7.24 24.79 7.90L24.79 7.90L24.79 7.90Q24.08 8.57 24.08 9.65L24.08 9.65L24.08 9.65Q24.08 10.35 24.41 10.90L24.41 10.90L24.41 10.90Q24.74 11.45 25.32 11.76L25.32 11.76L25.32 11.76Q25.90 12.07 26.64 12.07L26.64 12.07ZM33.07 13.55L33.07 6.13L34.41 6.13L34.41 13.55L33.07 13.55ZM33.74 4.70L33.74 4.70Q33.35 4.70 33.09 4.45L33.09 4.45L33.09 4.45Q32.83 4.20 32.83 3.84L32.83 3.84L32.83 3.84Q32.83 3.47 33.09 3.21L33.09 3.21L33.09 3.21Q33.35 2.95 33.74 2.95L33.74 2.95L33.74 2.95Q34.13 2.95 34.39 3.20L34.39 3.20L34.39 3.20Q34.65 3.44 34.65 3.81L34.65 3.81L34.65 3.81Q34.65 4.19 34.39 4.45L34.39 4.45L34.39 4.45Q34.13 4.70 33.74 4.70L33.74 4.70ZM40.94 6.06L40.94 6.06Q42.35 6.06 43.18 6.88L43.18 6.88L43.18 6.88Q44.02 7.70 44.02 9.28L44.02 9.28L44.02 13.55L42.67 13.55L42.67 9.44L42.67 9.44Q42.67 8.36 42.15 7.81L42.15 7.81L42.15 7.81Q41.64 7.27 40.67 7.27L40.67 7.27L40.67 7.27Q39.58 7.27 38.95 7.90L38.95 7.90L38.95 7.90Q38.32 8.54 38.32 9.73L38.32 9.73L38.32 13.55L36.97 13.55L36.97 6.13L38.26 6.13L38.26 7.25L38.26 7.25Q38.67 6.68 39.36 6.37L39.36 6.37L39.36 6.37Q40.05 6.06 40.94 6.06L40.94 6.06ZM52.33 6.13L53.61 6.13L53.61 12.54L53.61 12.54Q53.61 14.49 52.64 15.42L52.64 15.42L52.64 15.42Q51.67 16.35 49.76 16.35L49.76 16.35L49.76 16.35Q48.71 16.35 47.75 16.06L47.75 16.06L47.75 16.06Q46.80 15.78 46.21 15.25L46.21 15.25L46.86 14.21L46.86 14.21Q47.38 14.66 48.14 14.92L48.14 14.92L48.14 14.92Q48.90 15.18 49.71 15.18L49.71 15.18L49.71 15.18Q51.02 15.18 51.64 14.56L51.64 14.56L51.64 14.56Q52.26 13.94 52.26 12.68L52.26 12.68L52.26 12.10L52.26 12.10Q51.79 12.67 51.09 12.96L51.09 12.96L51.09 12.96Q50.40 13.24 49.59 13.24L49.59 13.24L49.59 13.24Q48.52 13.24 47.66 12.79L47.66 12.79L47.66 12.79Q46.80 12.33 46.31 11.52L46.31 11.52L46.31 11.52Q45.82 10.70 45.82 9.65L45.82 9.65L45.82 9.65Q45.82 8.60 46.31 7.78L46.31 7.78L46.31 7.78Q46.80 6.96 47.66 6.51L47.66 6.51L47.66 6.51Q48.52 6.06 49.59 6.06L49.59 6.06L49.59 6.06Q50.43 6.06 51.15 6.37L51.15 6.37L51.15 6.37Q51.87 6.68 52.33 7.28L52.33 7.28L52.33 6.13ZM49.74 12.07L49.74 12.07Q50.47 12.07 51.05 11.76L51.05 11.76L51.05 11.76Q51.63 11.45 51.96 10.90L51.96 10.90L51.96 10.90Q52.29 10.35 52.29 9.65L52.29 9.65L52.29 9.65Q52.29 8.57 51.58 7.90L51.58 7.90L51.58 7.90Q50.86 7.24 49.74 7.24L49.74 7.24L49.74 7.24Q48.61 7.24 47.89 7.90L47.89 7.90L47.89 7.90Q47.18 8.57 47.18 9.65L47.18 9.65L47.18 9.65Q47.18 10.35 47.51 10.90L47.51 10.90L47.51 10.90Q47.84 11.45 48.42 11.76L48.42 11.76L48.42 11.76Q49 12.07 49.74 12.07L49.74 12.07ZM62.99 13.66L62.99 13.66Q61.88 13.66 60.85 13.32L60.85 13.32L60.85 13.32Q59.82 12.98 59.23 12.43L59.23 12.43L59.75 11.34L59.75 11.34Q60.31 11.84 61.19 12.16L61.19 12.16L61.19 12.16Q62.06 12.47 62.99 12.47L62.99 12.47L62.99 12.47Q64.20 12.47 64.81 12.06L64.81 12.06L64.81 12.06Q65.41 11.65 65.41 10.96L65.41 10.96L65.41 10.96Q65.41 10.46 65.08 10.14L65.08 10.14L65.08 10.14Q64.75 9.83 64.27 9.66L64.27 9.66L64.27 9.66Q63.78 9.49 62.90 9.28L62.90 9.28L62.90 9.28Q61.80 9.02 61.12 8.75L61.12 8.75L61.12 8.75Q60.44 8.48 59.96 7.93L59.96 7.93L59.96 7.93Q59.47 7.38 59.47 6.44L59.47 6.44L59.47 6.44Q59.47 5.66 59.89 5.03L59.89 5.03L59.89 5.03Q60.30 4.40 61.14 4.02L61.14 4.02L61.14 4.02Q61.98 3.64 63.22 3.64L63.22 3.64L63.22 3.64Q64.09 3.64 64.93 3.86L64.93 3.86L64.93 3.86Q65.77 4.09 66.37 4.51L66.37 4.51L65.91 5.63L65.91 5.63Q65.30 5.24 64.60 5.03L64.60 5.03L64.60 5.03Q63.90 4.83 63.22 4.83L63.22 4.83L63.22 4.83Q62.03 4.83 61.44 5.26L61.44 5.26L61.44 5.26Q60.84 5.70 60.84 6.38L60.84 6.38L60.84 6.38Q60.84 6.89 61.18 7.20L61.18 7.20L61.18 7.20Q61.52 7.52 62.01 7.69L62.01 7.69L62.01 7.69Q62.51 7.87 63.36 8.06L63.36 8.06L63.36 8.06Q64.47 8.33 65.14 8.60L65.14 8.60L65.14 8.60Q65.81 8.86 66.30 9.41L66.30 9.41L66.30 9.41Q66.78 9.95 66.78 10.88L66.78 10.88L66.78 10.88Q66.78 11.65 66.36 12.29L66.36 12.29L66.36 12.29Q65.94 12.92 65.09 13.29L65.09 13.29L65.09 13.29Q64.23 13.66 62.99 13.66L62.99 13.66ZM72.38 12.15L72.80 13.12L72.80 13.12Q72.51 13.37 72.07 13.50L72.07 13.50L72.07 13.50Q71.64 13.64 71.18 13.64L71.18 13.64L71.18 13.64Q70.06 13.64 69.44 13.03L69.44 13.03L69.44 13.03Q68.82 12.43 68.82 11.31L68.82 11.31L68.82 7.24L67.56 7.24L67.56 6.13L68.82 6.13L68.82 4.51L70.17 4.51L70.17 6.13L72.30 6.13L72.30 7.24L70.17 7.24L70.17 11.26L70.17 11.26Q70.17 11.86 70.47 12.18L70.47 12.18L70.47 12.18Q70.77 12.50 71.33 12.50L71.33 12.50L71.33 12.50Q71.95 12.50 72.38 12.15L72.38 12.15ZM77.13 6.06L77.13 6.06Q78.67 6.06 79.48 6.82L79.48 6.82L79.48 6.82Q80.30 7.57 80.30 9.07L80.30 9.07L80.30 13.55L79.03 13.55L79.03 12.57L79.03 12.57Q78.69 13.09 78.07 13.36L78.07 13.36L78.07 13.36Q77.45 13.64 76.59 13.64L76.59 13.64L76.59 13.64Q75.35 13.64 74.60 13.03L74.60 13.03L74.60 13.03Q73.85 12.43 73.85 11.45L73.85 11.45L73.85 11.45Q73.85 10.47 74.56 9.88L74.56 9.88L74.56 9.88Q75.28 9.28 76.83 9.28L76.83 9.28L78.96 9.28L78.96 9.02L78.96 9.02Q78.96 8.15 78.46 7.69L78.46 7.69L78.46 7.69Q77.95 7.22 76.97 7.22L76.97 7.22L76.97 7.22Q76.31 7.22 75.68 7.44L75.68 7.44L75.68 7.44Q75.05 7.66 74.62 8.02L74.62 8.02L74.06 7.01L74.06 7.01Q74.63 6.55 75.43 6.31L75.43 6.31L75.43 6.31Q76.23 6.06 77.13 6.06L77.13 6.06ZM76.82 12.60L76.82 12.60Q77.59 12.60 78.15 12.26L78.15 12.26L78.15 12.26Q78.71 11.91 78.96 11.28L78.96 11.28L78.96 10.25L76.89 10.25L76.89 10.25Q75.18 10.25 75.18 11.40L75.18 11.40L75.18 11.40Q75.18 11.96 75.61 12.28L75.61 12.28L75.61 12.28Q76.05 12.60 76.82 12.60L76.82 12.60ZM84.08 7.38L84.08 7.38Q84.43 6.73 85.12 6.40L85.12 6.40L85.12 6.40Q85.81 6.06 86.79 6.06L86.79 6.06L86.79 7.36L86.79 7.36Q86.67 7.35 86.48 7.35L86.48 7.35L86.48 7.35Q85.39 7.35 84.76 8.00L84.76 8.00L84.76 8.00Q84.14 8.65 84.14 9.86L84.14 9.86L84.14 13.55L82.80 13.55L82.80 6.13L84.08 6.13L84.08 7.38Z"></path></g><!----><g data-v-423bf9ae="" id="79bd9d3a-7a26-4729-b8b9-fe64deb16ab2" transform="matrix(2.0455104078620976,0,0,2.0455104078620976,144.7567430563931,-4.092060018626597)" stroke="none" fill="white"><circle cx="36.601" cy="11.088" r="4.55"></circle><path d="M33.165 37.785l-1.885-7.76a3.183 3.183 0 0 1 .407-2.45l3.809-5.978c.598-.939.796-2.055.555-3.143s-.892-2.016-1.832-2.615a4.135 4.135 0 0 0-1.474-.581l-5.664-1.059 1.704-1.286c.189-.143.343-.316.476-.504.255.128.535.204.83.204h.003c.499 0 .967-.193 1.319-.545.353-.352.549-.82.55-1.32 0-.5-.194-.969-.545-1.322a1.862 1.862 0 0 0-2.134-.364l-.948-.004a2.24 2.24 0 0 0-.597-.18 2.26 2.26 0 0 0-1.22.174l-2.063-.006h-.002a.5.5 0 0 0-.493.424l-.484-.029a3.735 3.735 0 0 0-2.916 1.116 17.456 17.456 0 0 1-13.19 5.174.5.5 0 1 0-.043 1 18.51 18.51 0 0 0 13.944-5.472 2.816 2.816 0 0 1 2.145-.82l.427.026c.005.151.073.29.19.38l-3.116 2.352a2.612 2.612 0 0 0-.51 3.652c.393.52.96.873 1.602.993l5.757 1.076-.87 1.366a27.87 27.87 0 0 0-2.92 6.118l-5.472 16.316a2.472 2.472 0 0 0 .13 1.9c.297.596.807 1.04 1.438 1.251a2.478 2.478 0 0 0 1.901-.13 2.473 2.473 0 0 0 1.25-1.438l3.711-11.064 1.143 4.705a8.954 8.954 0 0 0 2.183 4.022l2.847 3.017a2.494 2.494 0 0 0 3.52.102 2.495 2.495 0 0 0 .101-3.52l-3.564-3.778zM14.977 4.977c-.908 0-1.646.738-1.646 1.646s.738 1.647 1.646 1.647 1.647-.739 1.647-1.647V2.5a.496.496 0 0 0-.204-.402.507.507 0 0 0-.446-.075l-4.408 1.375a.501.501 0 0 0-.35.478v2.61A1.648 1.648 0 0 0 8.923 8c0 .908.738 1.647 1.646 1.647s1.647-.739 1.647-1.647V4.243l3.408-1.064v1.93a1.638 1.638 0 0 0-.647-.132z"></path></g><!----></svg>