<svg xmlns="http://www.w3.org/2000/svg" viewBox="0 0 229.6 137">
  <path d="M 114.8265 0 C 84.204 0 65.07 15.219 57.411 45.657 c 11.484 -15.219 24.8805 -20.925 40.1895 -17.1225 c 8.7345 2.169 14.9805 8.469 21.888 15.444 c 11.259 11.358 24.291 24.5025 52.749 24.5025 c 30.618 0 49.7565 -15.219 57.411 -45.6525 c -11.4795 15.219 -24.876 20.925 -40.185 17.118 c -8.739 -2.169 -14.985 -8.469 -21.8925 -15.4395 C 156.312 13.14 143.2845 0 114.8265 0 z M 57.411 68.481 C 26.793 68.481 7.6545 83.7 0 114.138 c 11.484 -15.219 24.8805 -20.925 40.185 -17.1225 c 8.739 2.169 14.985 8.469 21.8925 15.444 c 11.259 11.358 24.2865 24.5025 52.749 24.5025 c 30.618 0 49.7565 -15.2145 57.411 -45.6525 c -11.484 15.219 -24.8805 20.925 -40.1895 17.1225 c -8.7345 -2.1735 -14.9805 -8.4735 -21.888 -15.444 c -11.259 -11.358 -24.291 -24.507 -52.749 -24.507 z" fill="#38bdf8"/>
</svg>