<svg xmlns="http://www.w3.org/2000/svg" viewBox="0 0 386.06 163" className="iconAbove"><path d="M16.836 150.955q-4.97 0-9.582-1.522Q2.642 147.91 0 145.448l2.328-4.88q2.508 2.238 6.448 3.67 3.896 1.389 8.06 1.389 5.418 0 8.15-1.836 2.686-1.836 2.686-4.925 0-2.24-1.478-3.672-1.478-1.388-3.627-2.15-2.194-.76-6.134-1.7-4.926-1.165-7.97-2.374-3.045-1.209-5.24-3.671-2.148-2.463-2.148-6.672 0-3.493 1.88-6.314 1.836-2.82 5.597-4.522 3.761-1.701 9.314-1.701 3.895 0 7.656.985 3.762 1.03 6.448 2.91L29.91 115q-2.73-1.746-5.865-2.687-3.135-.895-6.18-.895-5.328 0-7.97 1.925-2.686 1.97-2.686 5.015 0 2.284 1.522 3.672 1.523 1.433 3.717 2.194 2.239.806 6.045 1.657 4.97 1.209 7.97 2.418 3 1.164 5.194 3.626 2.149 2.418 2.149 6.582 0 3.448-1.88 6.314-1.881 2.82-5.687 4.478-3.85 1.656-9.403 1.656Zm25.254-.492v-33.224h6v33.224h-6Zm3-39.627q-1.747 0-2.91-1.12-1.165-1.119-1.165-2.73 0-1.658 1.164-2.822Q43.343 103 45.09 103q1.747 0 2.911 1.12 1.164 1.074 1.164 2.73 0 1.702-1.164 2.866-1.164 1.12-2.91 1.12Zm32.238 6.09q6.314 0 10.03 3.671 3.761 3.672 3.761 10.746v19.12h-6.044V132.06q0-4.836-2.329-7.299-2.283-2.418-6.627-2.418-4.88 0-7.701 2.821-2.821 2.866-2.821 8.194v17.105h-6.045v-33.224h5.776v5.015q1.836-2.553 4.926-3.94 3.09-1.389 7.074-1.389Zm51 .313h5.732v28.701q0 8.732-4.344 12.896Q125.373 163 116.821 163q-4.702 0-9-1.299-4.254-1.253-6.896-3.626l2.91-4.657q2.33 2.015 5.732 3.179 3.403 1.164 7.03 1.164 5.866 0 8.642-2.776t2.776-8.418v-2.597q-2.105 2.552-5.239 3.85-3.09 1.255-6.716 1.255-4.791 0-8.642-2.015-3.85-2.06-6.045-5.687-2.194-3.672-2.194-8.373 0-4.701 2.194-8.373 2.194-3.672 6.045-5.687 3.85-2.015 8.642-2.015 3.76 0 6.985 1.388 3.224 1.388 5.283 4.075v-5.15Zm-11.597 26.597q3.269 0 5.866-1.388 2.597-1.388 4.075-3.851 1.477-2.463 1.477-5.597 0-4.836-3.179-7.836-3.224-2.955-8.239-2.955-5.06 0-8.283 2.955-3.18 3-3.18 7.836 0 3.134 1.478 5.597 1.478 2.463 4.075 3.85 2.597 1.389 5.91 1.389Zm28.791 6.627v-33.224h6v33.224h-6Zm3-39.627q-1.746 0-2.91-1.12-1.164-1.119-1.164-2.73 0-1.658 1.164-2.822 1.164-1.164 2.91-1.164 1.747 0 2.91 1.12 1.165 1.074 1.165 2.73 0 1.702-1.164 2.866-1.164 1.12-2.91 1.12Zm32.24 6.09q6.313 0 10.029 3.671 3.761 3.672 3.761 10.746v19.12h-6.045V132.06q0-4.836-2.328-7.299-2.283-2.418-6.627-2.418-4.88 0-7.701 2.821-2.821 2.866-2.821 8.194v17.105h-6.045v-33.224h5.776v5.015q1.836-2.553 4.926-3.94 3.09-1.389 7.074-1.389Zm51 .313h5.73v28.701q0 8.732-4.343 12.896Q228.806 163 220.254 163q-4.702 0-9-1.299-4.254-1.253-6.896-3.626l2.91-4.657q2.329 2.015 5.732 3.179 3.403 1.164 7.03 1.164 5.866 0 8.642-2.776t2.776-8.418v-2.597q-2.105 2.552-5.24 3.85-3.089 1.255-6.715 1.255-4.792 0-8.642-2.015-3.851-2.06-6.045-5.687-2.194-3.672-2.194-8.373 0-4.701 2.194-8.373 2.194-3.672 6.045-5.687 3.85-2.015 8.642-2.015 3.76 0 6.985 1.388 3.223 1.388 5.283 4.075v-5.15Zm-11.598 26.597q3.269 0 5.866-1.388 2.597-1.388 4.074-3.851 1.478-2.463 1.478-5.597 0-4.836-3.179-7.836-3.224-2.955-8.239-2.955-5.06 0-8.283 2.955-3.18 3-3.18 7.836 0 3.134 1.478 5.597 1.478 2.463 4.075 3.85 2.597 1.389 5.91 1.389Zm59.329 7.12q-4.97 0-9.583-1.523-4.612-1.523-7.253-3.985l2.328-4.88q2.508 2.238 6.448 3.67 3.895 1.389 8.06 1.389 5.417 0 8.149-1.836 2.686-1.836 2.686-4.925 0-2.24-1.477-3.672-1.478-1.388-3.627-2.15-2.194-.76-6.134-1.7-4.926-1.165-7.97-2.374-3.045-1.209-5.195-3.671-2.194-2.463-2.194-6.672 0-3.493 1.88-6.314 1.837-2.82 5.598-4.522 3.761-1.701 9.313-1.701 3.896 0 7.657.985 3.761 1.03 6.448 2.91l-2.06 5.015q-2.731-1.746-5.866-2.687-3.134-.895-6.179-.895-5.328 0-7.97 1.925-2.686 1.97-2.686 5.015 0 2.284 1.522 3.672 1.522 1.433 3.716 2.194 2.24.806 6.045 1.657 4.97 1.209 7.97 2.418 3 1.164 5.194 3.626 2.15 2.418 2.15 6.582 0 3.448-1.88 6.314-1.882 2.82-5.687 4.478-3.851 1.656-9.403 1.656Zm42.044-6.762 1.88 4.343q-1.298 1.12-3.268 1.702-1.925.627-3.985.627-5.015 0-7.79-2.732-2.777-2.686-2.777-7.701v-18.224h-5.642v-4.97h5.642v-7.254h6.045v7.254h9.537v4.97h-9.537v18q0 2.687 1.343 4.12 1.343 1.432 3.85 1.432 2.777 0 4.702-1.567Zm21.269-27.269q6.895 0 10.522 3.403Q357 123.687 357 130.403v20.06h-5.687v-4.388q-1.522 2.328-4.298 3.537-2.776 1.254-6.627 1.254-5.552 0-8.91-2.732-3.359-2.686-3.359-7.074t3.18-7.03q3.223-2.687 10.164-2.687H351v-1.164q0-3.895-2.239-5.955-2.283-2.105-6.671-2.105-2.956 0-5.777.985-2.82.986-4.746 2.597l-2.507-4.522q2.552-2.06 6.134-3.134 3.582-1.12 7.612-1.12Zm-1.388 29.284q3.448 0 5.955-1.522 2.508-1.568 3.627-4.388v-4.612h-9.269q-7.656 0-7.656 5.149 0 2.507 1.925 3.94 1.97 1.433 5.418 1.433Zm32.507-23.373q1.568-2.91 4.657-4.388 3.09-1.523 7.478-1.523v5.821q-.538-.045-1.388-.045-4.881 0-7.702 2.91-2.776 2.911-2.776 8.33v16.522h-6v-33.224h5.731v5.597Z" fill="#9106cd"/><g transform="translate(144.757 -4.092) scale(2.04551)" fill="#9106cd"><circle cx="36.601" cy="11.088" r="4.55"/><path d="m33.165 37.785-1.885-7.76a3.183 3.183 0 0 1 .407-2.45l3.809-5.978c.598-.939.796-2.055.555-3.143s-.892-2.016-1.832-2.615a4.135 4.135 0 0 0-1.474-.581l-5.664-1.059 1.704-1.286a2.25 2.25 0 0 0 .476-.504c.255.128.535.204.83.204h.003c.499 0 .967-.193 1.319-.545.353-.352.549-.82.55-1.32 0-.5-.194-.969-.545-1.322a1.862 1.862 0 0 0-2.134-.364l-.948-.004a2.24 2.24 0 0 0-.597-.18 2.26 2.26 0 0 0-1.22.174l-2.063-.006h-.002a.5.5 0 0 0-.493.424l-.484-.029a3.735 3.735 0 0 0-2.916 1.116 17.456 17.456 0 0 1-13.19 5.174.5.5 0 1 0-.043 1 18.51 18.51 0 0 0 13.944-5.472 2.816 2.816 0 0 1 2.145-.82l.427.026c.005.151.073.29.19.38l-3.116 2.352a2.612 2.612 0 0 0-.51 3.652c.393.52.96.873 1.602.993l5.757 1.076-.87 1.366a27.87 27.87 0 0 0-2.92 6.118l-5.472 16.316a2.472 2.472 0 0 0 .13 1.9c.297.596.807 1.04 1.438 1.251a2.478 2.478 0 0 0 1.901-.13 2.473 2.473 0 0 0 1.25-1.438l3.711-11.064 1.143 4.705a8.954 8.954 0 0 0 2.183 4.022l2.847 3.017a2.494 2.494 0 0 0 3.52.102 2.495 2.495 0 0 0 .101-3.52l-3.564-3.778zM14.977 4.977a1.647 1.647 0 0 0 0 3.293 1.65 1.65 0 0 0 1.647-1.647V2.5a.496.496 0 0 0-.204-.402.507.507 0 0 0-.446-.075l-4.408 1.375a.501.501 0 0 0-.35.478v2.61A1.648 1.648 0 0 0 8.923 8c0 .908.738 1.647 1.646 1.647S12.216 8.908 12.216 8V4.243l3.408-1.064v1.93a1.638 1.638 0 0 0-.647-.132z"/></g></svg>