<svg xmlns="http://www.w3.org/2000/svg" viewBox="0 0 229.6 137"><path d="M114.826 0C84.204 0 65.07 15.219 57.411 45.657c11.484-15.219 24.88-20.925 40.19-17.122 8.734 2.168 14.98 8.468 21.888 15.443 11.259 11.358 24.29 24.503 52.749 24.503 30.618 0 49.756-15.219 57.41-45.653-11.479 15.22-24.875 20.925-40.184 17.118-8.74-2.169-14.985-8.469-21.893-15.439C156.312 13.14 143.285 0 114.826 0zM57.411 68.481C26.793 68.481 7.654 83.7 0 114.138c11.484-15.219 24.88-20.925 40.185-17.122 8.739 2.168 14.985 8.468 21.892 15.443 11.26 11.359 24.287 24.503 52.75 24.503 30.618 0 49.756-15.214 57.41-45.652-11.483 15.219-24.88 20.925-40.189 17.122-8.735-2.173-14.98-8.473-21.888-15.444C98.901 81.63 85.869 68.481 57.411 68.481z" fill="#38bdf8"/></svg>