<svg xmlns="http://www.w3.org/2000/svg" viewBox="0 0 265.39 279.15"><defs><style>.cls-1{fill:#fff}</style><mask id="mask" x="0" y="20.13" width="265.39" height="259.02" maskUnits="userSpaceOnUse"><g id="mask-4"><path id="path-3" class="cls-1" d="M0 20.13h265.39v259.02H0V20.13z"/></g></mask></defs><g id="Layer_2" data-name="Layer 2"><g id="Layer_8" data-name="Layer 8"><path id="Fill-12" class="cls-1" d="M0 240.28h20.95v7.11h-6.9v30.8H6.73v-30.8H0v-7.11z"/><path id="Fill-14" class="cls-1" d="M46.31 255.1h4.29q3.45 0 4.74-.9a3.41 3.41 0 0 0 1.3-3A3.71 3.71 0 0 0 56 249a3.55 3.55 0 0 0-1.72-1.33 13.33 13.33 0 0 0-4-.4h-4Zm-7.22-14.82h9.68q6.28 0 8.95 1.12a9.18 9.18 0 0 1 4.28 3.73 11.29 11.29 0 0 1 1.63 6.15 10.43 10.43 0 0 1-1.8 6.25 10.84 10.84 0 0 1-5.39 3.81l9 16.85h-7.91L49 262.14h-2.69v16.05h-7.22Z"/><g style="mask:url(#mask)"><path id="Fill-16" class="cls-1" d="M83.77 240.28H91v24.52a12.68 12.68 0 0 0 .56 4.48 4.31 4.31 0 0 0 1.83 2.09 5.69 5.69 0 0 0 3.08.79 6 6 0 0 0 3.28-.87 4.64 4.64 0 0 0 1.91-2.23 16.6 16.6 0 0 0 .53-5.17v-23.61h7.24v22.6a32.77 32.77 0 0 1-.64 7.94 11.23 11.23 0 0 1-2.46 4.28 11.42 11.42 0 0 1-4.19 3 14.05 14.05 0 0 1-5.52 1 13.38 13.38 0 0 1-7.18-1.9 11.06 11.06 0 0 1-4.37-4.74q-1.31-2.85-1.31-9.63Z"/></g><path id="Fill-19" class="cls-1" d="M131.28 240.28h18.82v7.03h-11.65v6.89h11.65v6.93h-11.65v17.06h-7.17v-37.91z"/><path id="Fill-21" class="cls-1" d="M170.07 240.28h18.82v7.03h-11.65v6.89h11.65v6.93h-11.65v17.06h-7.17v-37.91z"/><path id="Fill-23" class="cls-1" d="M208.8 240.28h7.22v31.03h10.51v6.88H208.8v-37.91z"/><path id="Fill-25" class="cls-1" d="M244.7 240.28h20.69v7.06h-13.53v6.86h13.53v6.93h-13.53v9.98h13.53v7.08H244.7v-37.91z"/><ellipse cx="132.53" cy="102.14" rx="100.96" ry="102.14" style="fill:#5e464d"/><path id="Fill-6" class="cls-1" d="M100.78 192.71c4.13 1.41 18 5.92 18.59 1.51.32-2.42-7-4.9-16.91-10.15a159 159 0 0 1-38.25-28.26 87.82 87.82 0 0 1-26.32-61.06c-.84-30.9 11.24-55.88 31.11-72a101.88 101.88 0 0 0-39.6 78.15c-.59 22.35 5.66 41.18 17.4 58.32a66.5 66.5 0 0 0 12.67 12.48c11.25 8.51 27.7 16.38 41.31 21"/><path id="Fill-8" class="cls-1" d="M234.88 78.73c-6.26-29.44-25.72-50.05-51.75-64.61C203 28.29 231.05 58.42 214.53 85c-14 21.29-48.05 17.12-66.65 7-22.12-12-49.83-39-22.5-65.4 17.69-17.08 74 2.07 64.09 27.6-5.78 14.85-28.28 11.55-38.4 4.29-7.46-5.36-13.74-14.57-10.42-24.08 1.07-3.05.92-7.78-3.39-4.3-3.21 2.6-4.83 6.88-5.39 10.86-4.71 33.29 54.6 59.1 72.19 26.89 9.14-16.72-5.66-41-24.29-50.94-14-7.5-28.58-12.77-46.43-11.49-28.56 2-52.53 19.9-55.53 49.08-3 29 16.39 55.1 39.22 70.71 24 16.4 56.26 27.21 85.78 17.43 26.46-8.77 37.39-39.14 32.07-63.93"/><path id="Fill-10" d="M197.64 56.18C200.48 37.1 183.23 24 167.3 18.05c-18.78-7-43.59-3.94-57.27 11.61-10 11.42-9.35 28-4.19 41.42 7.8 20.27 25.41 34.92 45.91 41.25 14.56 4.5 32.18 6.46 46.94 1.71 21.53-6.93 28.54-29.38 24.09-49.95a59.08 59.08 0 0 0-4.36-12.88c-2.72-5.71-11-17.27.43-3.19a49.7 49.7 0 0 1 3.32 4.91 55.2 55.2 0 0 1 5.59 12.41c6.26 19.2 1.35 41.6-16 53.19-13.31 8.87-30.23 9.93-45.67 7.71-20.7-3-40.21-13-53.77-29.09-12.38-14.67-20.83-35.74-15.74-55 3.73-14.09 15.17-24.61 28.87-29 17.33-5.61 36.4-3 52 6.11 7.82 4.55 15 10.85 18.95 19.11a28.35 28.35 0 0 1 2.85 11.93 24.73 24.73 0 0 1-.39 5c-.11.6-1.38 2.29-1.2.9" style="fill:#3fe0c5"/></g></g></svg>